<?xml version="1.0" standalone="no"?>
<!DOCTYPE svg PUBLIC "-//W3C//DTD SVG 20010904//EN"
 "http://www.w3.org/TR/2001/REC-SVG-20010904/DTD/svg10.dtd">
<svg version="1.0" xmlns="http://www.w3.org/2000/svg"
 width="700.000000pt" height="700.000000pt" viewBox="0 0 700.000000 700.000000"
 preserveAspectRatio="xMidYMid meet">
<metadata>
Created by potrace 1.14, written by Peter Selinger 2001-2017
</metadata>
<g transform="translate(0.000000,700.000000) scale(0.100000,-0.100000)"
fill="#000000" stroke="none">
<path d="M1930 6879 c-105 -7 -118 -10 -175 -50 -73 -49 -91 -122 -91 -347 l1
-122 -47 -24 c-69 -36 -187 -105 -236 -138 l-43 -30 -127 69 c-70 38 -147 77
-171 87 -60 23 -130 18 -188 -13 -54 -29 -79 -64 -192 -259 -39 -67 -103 -177
-142 -244 -214 -368 -260 -460 -267 -531 -6 -58 17 -123 56 -159 27 -26 128
-98 136 -98 2 0 40 -22 83 -49 l78 -48 3 -191 2 -191 -41 -26 c-22 -15 -48
-29 -57 -33 -33 -12 -158 -97 -198 -134 -76 -70 -84 -177 -21 -296 19 -38 45
-84 56 -103 12 -19 24 -41 28 -49 4 -8 31 -55 60 -103 29 -48 53 -89 53 -91 0
-8 283 -472 306 -503 27 -36 84 -69 133 -78 54 -9 123 14 263 91 157 85 132
85 266 0 37 -23 97 -58 134 -77 38 -19 68 -41 69 -49 0 -8 2 -85 4 -170 1 -87
8 -168 15 -185 17 -44 57 -93 99 -121 49 -32 85 -34 576 -34 606 0 602 0 679
79 48 49 63 94 66 200 2 85 6 186 9 227 1 16 21 32 84 64 45 23 117 65 159 92
l78 50 132 -71 c161 -87 204 -102 264 -96 86 9 124 41 212 182 122 197 358
600 424 723 61 116 69 190 29 268 -26 52 -55 75 -203 162 -67 41 -125 75 -127
76 -2 2 -4 90 -5 195 l-1 192 119 72 c201 120 248 175 242 282 -4 56 -57 172
-145 316 -22 37 -41 69 -41 71 0 6 -298 515 -322 550 -64 94 -147 141 -225
127 -49 -9 -158 -60 -266 -124 -43 -26 -80 -47 -82 -47 -2 0 -46 26 -97 58
-51 32 -123 72 -160 91 -38 18 -68 36 -69 39 -1 4 -2 62 -4 129 -4 203 -18
271 -65 320 -30 33 -88 60 -145 69 -61 9 -834 11 -965 3z m630 -1154 c224 -40
393 -136 574 -326 74 -78 95 -108 141 -203 53 -111 91 -210 99 -263 2 -15 7
-47 11 -70 9 -55 9 -200 0 -255 -4 -23 -9 -56 -11 -73 -9 -55 -64 -208 -100
-274 -148 -281 -442 -489 -744 -526 -95 -12 -272 -7 -354 10 -359 74 -647 342
-766 711 -19 58 -23 96 -26 239 -5 231 14 324 100 492 19 38 53 93 75 123 59
79 186 205 258 256 106 76 270 142 410 164 60 9 271 6 333 -5z"/>
<path d="M5490 4808 c-24 -32 -30 -61 -34 -143 l-2 -60 -73 -44 -73 -43 -74
36 c-81 40 -131 45 -162 19 -22 -19 -198 -321 -239 -411 -38 -81 -21 -118 85
-179 26 -15 49 -30 52 -34 5 -7 5 -149 1 -170 0 -4 -27 -24 -60 -45 -59 -38
-101 -87 -101 -117 0 -32 203 -394 254 -454 34 -40 92 -38 178 7 l65 33 74
-44 74 -45 3 -72 c3 -87 13 -116 49 -139 24 -16 56 -18 279 -20 l252 -3 31 32
c33 33 33 35 35 137 l1 64 78 45 79 46 57 -32 c66 -36 129 -49 159 -33 38 20
242 372 264 453 16 64 1 89 -82 139 l-66 39 1 73 c2 39 3 82 4 93 1 14 12 26
34 35 50 21 117 93 117 127 0 24 -71 176 -126 269 -113 190 -128 210 -173 223
-27 8 -43 3 -110 -31 l-79 -41 -76 44 -75 43 -1 50 c-2 96 -19 146 -55 165
-18 10 -93 14 -284 15 l-260 1 -21 -28z m434 -513 c127 -37 243 -151 291 -285
22 -61 27 -196 10 -256 -37 -139 -123 -248 -238 -303 -86 -41 -212 -56 -312
-37 -59 11 -156 68 -213 125 -90 90 -133 197 -132 328 2 306 292 516 594 428z"/>
<path d="M4226 2919 c-48 -54 -63 -107 -65 -233 0 -38 -2 -70 -3 -71 -2 -1
-51 -29 -109 -62 l-106 -60 -59 34 c-124 74 -194 88 -252 53 -36 -22 -111
-133 -234 -345 -110 -189 -149 -272 -155 -327 -9 -85 15 -115 155 -197 l72
-42 0 -128 0 -129 -78 -46 c-164 -96 -189 -164 -111 -307 146 -270 284 -496
329 -540 59 -59 104 -60 200 -7 30 17 73 41 95 53 l40 22 95 -54 c52 -30 100
-57 106 -61 7 -4 15 -50 19 -111 8 -134 28 -190 76 -214 45 -22 167 -30 434
-30 305 1 359 8 403 55 25 28 38 107 36 220 -1 62 1 67 25 79 14 8 65 38 114
67 l88 54 32 -20 c83 -52 171 -93 205 -96 38 -4 72 12 106 49 23 25 116 162
116 171 0 3 8 18 19 32 40 58 208 369 219 408 29 100 2 145 -137 227 -45 27
-82 51 -82 55 -1 4 -2 62 -3 129 l-2 121 66 38 c127 72 170 119 170 185 0 85
-329 657 -399 693 -51 27 -102 20 -188 -24 -43 -22 -82 -45 -87 -50 -13 -13
-49 -13 -61 -1 -10 10 -43 28 -135 76 -30 16 -57 31 -60 33 -4 3 -6 47 -9 206
-1 43 -5 52 -41 86 -28 26 -56 42 -88 49 -28 6 -180 10 -380 9 l-333 -1 -43
-48z m559 -728 c177 -36 359 -175 446 -341 13 -25 24 -47 24 -50 1 -3 5 -13
10 -24 48 -109 56 -319 17 -428 -31 -87 -52 -128 -96 -188 -250 -344 -717
-383 -1011 -85 -38 39 -85 96 -103 127 -178 301 -95 678 195 885 75 53 184 98
263 108 30 4 56 8 57 9 7 7 145 -3 198 -13z"/>
</g>
</svg>
